<?xml version="1.0" standalone="no"?>
<!DOCTYPE svg PUBLIC "-//W3C//DTD SVG 20010904//EN"
 "http://www.w3.org/TR/2001/REC-SVG-20010904/DTD/svg10.dtd">
<svg version="1.0" xmlns="http://www.w3.org/2000/svg"
 width="900.000000pt" height="900.000000pt" viewBox="0 0 900.000000 900.000000"
 preserveAspectRatio="xMidYMid meet">
<metadata>
Created by potrace 1.11, written by Peter Selinger 2001-2013
</metadata>
<g transform="translate(0.000000,900.000000) scale(0.100000,-0.100000)"
fill="#000000" stroke="none">
<path d="M1560 7580 c-58 -49 -136 -63 -191 -34 -30 15 -31 15 -24 -8 4 -13 8
-25 8 -28 0 -4 -23 -58 -29 -68 -1 -2 -12 -1 -23 3 -13 4 -21 15 -21 28 0 32
-11 44 -47 52 -18 3 -40 16 -48 28 l-15 21 0 -21 c0 -11 9 -65 20 -119 23
-111 20 -147 -17 -186 -24 -25 -25 -30 -15 -71 9 -33 9 -65 0 -123 -14 -94 -2
-131 50 -153 41 -19 40 -36 -4 -82 -25 -26 -37 -48 -41 -77 -5 -37 -3 -42 20
-53 34 -15 47 -74 31 -136 -7 -26 -36 -30 -54 -8 -7 8 -16 15 -21 15 -15 0
-10 -27 7 -41 9 -7 20 -24 25 -38 8 -20 4 -32 -22 -69 -28 -39 -31 -48 -23
-81 13 -52 -9 -254 -35 -318 -14 -35 -24 -94 -30 -170 -7 -88 -17 -141 -40
-208 -23 -66 -30 -101 -27 -135 3 -25 5 -67 5 -93 1 -36 5 -49 19 -54 21 -8
32 -23 32 -45 0 -13 -8 -18 -29 -18 -31 0 -30 4 -47 -142 -5 -49 -4 -58 10
-58 8 0 23 -14 31 -31 20 -37 5 -63 -32 -56 -19 4 -24 -1 -33 -32 -17 -66 -29
-135 -35 -211 -3 -41 -9 -120 -14 -175 -4 -55 -8 -116 -8 -135 0 -19 -5 -53
-11 -75 -7 -22 -19 -87 -27 -145 -9 -58 -18 -113 -21 -122 -4 -12 2 -19 18
-23 31 -8 82 -71 74 -92 -5 -11 -16 -14 -41 -11 -60 7 -89 -35 -136 -193 -21
-73 -39 -135 -39 -136 0 -2 14 -2 31 -1 28 3 32 -1 54 -55 42 -101 42 -97 -8
-97 -37 0 -46 4 -55 25 -6 14 -15 25 -20 25 -13 0 -41 -55 -50 -96 -10 -49
-46 -61 -56 -19 -10 41 -26 19 -26 -36 0 -27 -16 -121 -35 -208 -29 -128 -48
-186 -98 -298 l-63 -138 16 -60 c10 -35 23 -61 31 -63 9 -1 21 -19 28 -40 7
-20 24 -49 38 -63 39 -42 43 -147 9 -272 -16 -60 -24 -113 -21 -135 2 -21 7
-79 10 -130 3 -51 11 -105 19 -120 7 -15 17 -61 20 -103 l7 -76 72 -70 72 -71
255 -6 c237 -6 325 -9 695 -21 77 -2 255 -7 395 -11 140 -3 273 -7 295 -9 303
-26 4247 -26 4620 0 28 2 181 6 340 9 160 4 340 9 400 11 61 3 222 7 360 10
137 3 251 8 253 10 4 3 -8 336 -23 650 -3 55 -7 159 -10 230 -12 293 -15 375
-20 480 -3 61 -7 171 -10 245 -3 74 -14 333 -25 575 l-19 440 29 50 c18 32 34
84 45 142 16 89 16 95 -2 150 -23 66 -20 81 13 93 16 6 25 20 30 44 5 32 2 39
-30 69 -20 19 -36 42 -36 52 0 14 -6 17 -33 12 -23 -3 -40 0 -57 13 -23 17
-26 17 -43 3 -13 -13 -24 -14 -44 -7 -62 22 -88 105 -84 275 1 49 6 62 45 115
33 45 52 88 80 179 36 116 39 122 100 185 93 94 124 163 131 287 6 96 7 100
60 193 57 101 105 250 105 326 0 31 21 81 90 219 50 98 90 189 90 203 0 13
-17 61 -38 106 -38 81 -40 83 -118 129 -43 26 -96 52 -116 57 -49 14 -119 96
-148 174 l-22 58 -222 -6 c-121 -4 -282 -8 -356 -11 -74 -3 -232 -7 -350 -10
-118 -3 -273 -7 -345 -10 -71 -2 -238 -7 -370 -10 -429 -10 -457 -12 -478 -37
-36 -44 -65 -50 -314 -68 l-243 -18 -45 -40 c-41 -36 -55 -41 -157 -61 -210
-41 -319 -79 -408 -142 -42 -30 -66 -40 -81 -36 -13 3 -43 -3 -68 -13 -64 -27
-133 -31 -224 -13 -75 15 -78 15 -100 -4 -12 -11 -67 -38 -122 -59 -92 -36
-108 -39 -200 -39 -74 0 -112 -5 -147 -19 -45 -18 -47 -18 -71 0 -14 11 -28
31 -31 46 -9 46 -44 59 -211 78 -137 16 -163 16 -222 3 -49 -10 -80 -11 -112
-4 -44 9 -47 8 -129 -45 -65 -42 -119 -66 -241 -107 l-157 -53 -95 21 c-52 12
-114 31 -139 43 -25 11 -75 22 -113 25 -83 7 -121 32 -148 95 -14 33 -19 61
-16 101 3 36 -1 66 -11 85 -9 19 -12 44 -9 70 8 56 -17 167 -48 211 -14 21
-30 56 -36 79 -14 55 -59 100 -143 144 -82 43 -115 43 -168 1 -40 -31 -66 -35
-138 -18 -35 8 -59 24 -110 74 l-65 64 -35 -29z m2508 -1652 l3 -68 -208 0
-209 0 -48 -49 -48 -48 51 -90 50 -89 -59 -212 c-33 -116 -60 -216 -60 -222 0
-7 284 -9 871 -8 l872 3 12 36 13 36 -82 17 c-90 20 -247 75 -316 112 -75 41
-89 90 -32 113 26 11 720 49 944 52 117 2 138 -5 138 -48 0 -38 -108 -145
-178 -176 -59 -27 -162 -57 -193 -57 -28 0 -43 -22 -73 -108 l-28 -82 123
-153 c68 -83 161 -198 206 -254 l84 -102 62 34 c80 43 244 100 355 122 106 21
365 23 462 4 449 -89 820 -409 960 -829 50 -150 63 -233 63 -397 1 -179 -23
-306 -84 -459 -273 -684 -1065 -986 -1719 -656 -115 58 -212 131 -321 239
-145 144 -234 283 -294 456 -16 44 -31 84 -35 88 -10 11 -374 -54 -379 -67 -2
-6 -25 -32 -51 -57 l-47 -46 28 -134 c16 -74 31 -144 34 -156 4 -18 13 -22 48
-25 42 -3 42 -3 45 -44 l3 -41 -83 -6 c-46 -4 -107 -7 -135 -7 l-53 0 0 45 c0
43 1 45 30 45 17 0 30 3 30 8 0 4 -16 76 -37 159 l-37 153 -36 11 c-85 28
-124 82 -125 171 l0 58 -614 695 c-338 383 -618 692 -621 688 -4 -5 -17 -36
-30 -70 l-22 -63 90 -87 c188 -185 310 -403 363 -653 31 -147 31 -353 0 -500
-79 -374 -322 -690 -661 -860 -152 -77 -286 -114 -456 -129 -624 -54 -1194
371 -1325 989 -29 135 -31 363 -5 485 56 260 166 466 346 645 319 320 758 439
1203 326 52 -13 129 -40 172 -60 43 -20 80 -34 82 -32 7 7 353 966 353 979 0
7 -24 53 -54 104 l-54 91 115 126 115 126 242 -2 241 -3 3 -67z"/>
<path d="M3461 4902 c-31 -59 -51 -34 569 -731 322 -362 586 -658 587 -657 1
1 -1 36 -4 78 l-6 77 -31 3 c-28 3 -31 7 -34 41 l-3 37 114 0 c125 0 127 -1
127 -61 0 -25 -4 -29 -26 -29 -26 0 -27 -1 -20 -46 3 -26 6 -56 6 -67 0 -13 4
-17 9 -11 4 5 108 311 230 681 122 370 224 679 227 688 6 13 -82 15 -865 15
-829 0 -871 -1 -880 -18z"/>
<path d="M5240 4279 c-94 -288 -204 -624 -245 -746 -56 -169 -70 -223 -59
-223 17 0 278 27 339 35 l40 5 1 143 c4 337 118 622 344 860 l68 72 -135 160
c-74 88 -145 173 -158 189 l-23 29 -172 -524z"/>
<path d="M2330 4451 c-220 -50 -377 -138 -531 -297 -288 -300 -360 -751 -179
-1129 70 -145 209 -307 335 -392 209 -140 448 -201 681 -174 239 28 441 125
609 295 154 155 242 327 280 541 53 307 -52 651 -264 859 -48 47 -49 48 -56
25 -19 -60 -100 -219 -151 -297 -64 -95 -210 -252 -315 -338 -42 -34 -72 -67
-76 -83 -19 -80 -66 -117 -142 -108 -65 7 -111 58 -111 123 0 25 7 58 16 74
18 29 62 60 88 60 37 0 252 205 332 317 55 76 122 211 160 321 34 98 38 92
-83 142 -129 54 -214 71 -368 76 -112 3 -157 0 -225 -15z"/>
<path d="M6356 4454 c-105 -19 -177 -40 -255 -75 -36 -16 -67 -31 -69 -33 -7
-8 539 -727 556 -732 96 -29 140 -123 92 -201 -27 -45 -72 -66 -129 -60 -33 4
-178 -20 -503 -81 l-457 -86 6 -26 c12 -51 65 -167 111 -240 55 -89 192 -230
281 -290 257 -173 581 -222 866 -133 267 84 496 280 615 528 181 378 109 829
-179 1129 -157 163 -333 259 -554 301 -98 18 -275 18 -381 -1z"/>
<path d="M5784 4153 c-116 -137 -179 -276 -208 -459 -17 -115 -29 -294 -18
-294 29 2 833 138 837 142 9 9 -517 688 -532 688 -7 0 -42 -35 -79 -77z"/>
</g>
</svg>
